<svg width="208" height="105" viewBox="0 0 208 105" fill="none" xmlns="http://www.w3.org/2000/svg">
<g clip-path="url(#clip0_433_516)">
<path d="M201.728 104.617C204.584 104.617 206.914 102.299 206.771 99.4461C205.519 74.4207 195.217 50.6303 177.684 32.5662C158.947 13.2618 133.427 2.01551 106.537 1.21274C79.6469 0.409957 53.5017 10.1138 33.6468 28.2661C15.0675 45.2521 3.36379 68.3856 0.621651 93.2917C0.309021 96.1312 2.49593 98.5835 5.34754 98.7539V98.7539C8.19914 98.9244 10.6342 96.7476 10.9626 93.9098C13.534 71.6904 24.0337 51.0716 40.6271 35.9011C58.4965 19.5641 82.0272 10.8306 106.228 11.5531C130.429 12.2756 153.397 22.3973 170.26 39.7712C185.919 55.9045 195.17 77.1129 196.411 99.4462C196.57 102.299 198.871 104.617 201.728 104.617V104.617Z" fill="white" fill-opacity="0.1"/>
<path d="M0 104.167C5.78188e-07 76.9734 10.8992 50.8939 30.3 31.6653C49.7008 12.4367 76.0139 1.63425 103.451 1.63425C130.888 1.63425 157.201 12.4367 176.601 31.6653C196.002 50.8939 206.902 76.9734 206.902 104.167" fill="url(#paint0_linear_433_516)" fill-opacity="0.1"/>
<path d="M5.17252 104.617C2.31583 104.617 -0.0134732 102.299 0.129231 99.4459C1.32258 75.587 10.7455 52.8137 26.8805 35.0536C44.1776 16.0144 67.9475 4.10219 93.5527 1.6412C119.158 -0.819793 144.762 6.34694 165.368 21.7432C184.591 36.105 198.179 56.6665 203.895 79.8614C204.578 82.6351 202.733 85.354 199.928 85.8981V85.8981C197.124 86.4422 194.424 84.6047 193.725 81.8349C188.509 61.1649 176.338 42.8524 159.177 30.0305C140.63 16.1739 117.587 9.72385 94.5425 11.9387C71.4978 14.1536 50.1049 24.8746 34.5375 42.0099C20.1325 57.8658 11.6718 78.1613 10.4886 99.4462C10.33 102.299 8.02922 104.617 5.17252 104.617V104.617Z" fill="#31E981"/>
<path d="M66.3068 52.5758C67.5038 52.5758 68.6553 52.7765 69.7614 53.178C70.875 53.5796 71.8674 54.2197 72.7386 55.0985C73.6174 55.9773 74.3106 57.144 74.8182 58.5985C75.3333 60.0455 75.5947 61.822 75.6023 63.9281C75.6023 65.9053 75.3788 67.6705 74.9318 69.2235C74.4924 70.769 73.8598 72.0834 73.0341 73.1667C72.2083 74.25 71.2121 75.0758 70.0455 75.644C68.8788 76.2046 67.5758 76.4849 66.1364 76.4849C64.5833 76.4849 63.2121 76.1856 62.0227 75.5871C60.8333 74.9811 59.875 74.1591 59.1477 73.1212C58.428 72.0758 57.9924 70.9015 57.8409 69.5985H62.6932C62.8826 70.447 63.2803 71.1061 63.8864 71.5758C64.4924 72.0379 65.2424 72.269 66.1364 72.269C67.6515 72.269 68.803 71.6099 69.5909 70.2917C70.3788 68.9659 70.7765 67.1515 70.7841 64.8485H70.625C70.2765 65.5303 69.8068 66.1174 69.2159 66.6099C68.625 67.0947 67.947 67.4697 67.1818 67.7349C66.4242 68 65.6174 68.1326 64.7614 68.1326C63.3902 68.1326 62.1667 67.8106 61.0909 67.1667C60.0152 66.5227 59.1667 65.6364 58.5455 64.5076C57.9242 63.3788 57.6136 62.0909 57.6136 60.644C57.6061 59.0834 57.9659 57.6932 58.6932 56.4735C59.4205 55.2538 60.4356 54.2993 61.7386 53.6099C63.0492 52.9129 64.572 52.5682 66.3068 52.5758ZM66.3409 56.4394C65.5758 56.4394 64.8939 56.6212 64.2955 56.9849C63.7045 57.3485 63.2348 57.8371 62.8864 58.4508C62.5455 59.0644 62.3788 59.75 62.3864 60.5076C62.3864 61.2727 62.553 61.9621 62.8864 62.5758C63.2273 63.1818 63.6894 63.6667 64.2727 64.0303C64.8636 64.3864 65.5379 64.5644 66.2955 64.5644C66.8636 64.5644 67.3902 64.4584 67.875 64.2462C68.3598 64.0341 68.7803 63.7424 69.1364 63.3712C69.5 62.9924 69.7841 62.5568 69.9886 62.0644C70.1932 61.572 70.2955 61.0493 70.2955 60.4962C70.2879 59.7614 70.1136 59.0871 69.7727 58.4735C69.4318 57.8599 68.9621 57.3674 68.3636 56.9962C67.7652 56.625 67.0909 56.4394 66.3409 56.4394ZM87.6136 76.4849C85.9167 76.4849 84.4053 76.1932 83.0795 75.6099C81.7614 75.019 80.7197 74.2084 79.9545 73.1781C79.197 72.1402 78.8068 70.9432 78.7841 69.5871H83.7386C83.7689 70.1553 83.9545 70.6553 84.2955 71.0871C84.6439 71.5114 85.1061 71.8409 85.6818 72.0758C86.2576 72.3106 86.9053 72.4281 87.625 72.4281C88.375 72.4281 89.0379 72.2955 89.6136 72.0303C90.1894 71.7652 90.6402 71.3977 90.9659 70.9281C91.2917 70.4584 91.4545 69.9167 91.4545 69.3031C91.4545 68.6818 91.2803 68.1326 90.9318 67.6553C90.5909 67.1705 90.0985 66.7917 89.4545 66.519C88.8182 66.2462 88.0606 66.1099 87.1818 66.1099H85.0114V62.4962H87.1818C87.9242 62.4962 88.5795 62.3674 89.1477 62.1099C89.7235 61.8523 90.1705 61.4962 90.4886 61.0417C90.8068 60.5796 90.9659 60.0417 90.9659 59.4281C90.9659 58.8447 90.8258 58.3334 90.5455 57.894C90.2727 57.447 89.8864 57.0985 89.3864 56.8485C88.8939 56.5985 88.3182 56.4735 87.6591 56.4735C86.9924 56.4735 86.3826 56.5947 85.8295 56.8371C85.2765 57.072 84.8333 57.4091 84.5 57.8485C84.1667 58.2879 83.9886 58.803 83.9659 59.394H79.25C79.2727 58.053 79.6553 56.8712 80.3977 55.8485C81.1402 54.8258 82.1402 54.0265 83.3977 53.4508C84.6629 52.8674 86.0909 52.5758 87.6818 52.5758C89.2879 52.5758 90.6932 52.8674 91.8977 53.4508C93.1023 54.0341 94.0379 54.822 94.7045 55.8144C95.3788 56.7993 95.7121 57.9053 95.7045 59.1326C95.7121 60.4356 95.3068 61.5227 94.4886 62.394C93.678 63.2652 92.6212 63.8182 91.3182 64.0531V64.2349C93.0303 64.4546 94.3333 65.0493 95.2273 66.019C96.1288 66.9811 96.5758 68.1856 96.5682 69.6326C96.5758 70.9584 96.1932 72.1364 95.4205 73.1667C94.6553 74.197 93.5985 75.0076 92.25 75.5985C90.9015 76.1894 89.3561 76.4849 87.6136 76.4849ZM102.324 76.4621C101.574 76.4621 100.93 76.197 100.392 75.6667C99.8617 75.1288 99.5966 74.4849 99.5966 73.7349C99.5966 72.9924 99.8617 72.3561 100.392 71.8258C100.93 71.2955 101.574 71.0303 102.324 71.0303C103.051 71.0303 103.688 71.2955 104.233 71.8258C104.778 72.3561 105.051 72.9924 105.051 73.7349C105.051 74.2349 104.922 74.6932 104.665 75.1099C104.415 75.519 104.085 75.8485 103.676 76.0985C103.267 76.3409 102.816 76.4621 102.324 76.4621ZM116.963 52.5758C118.16 52.5758 119.312 52.7765 120.418 53.178C121.531 53.5796 122.524 54.2197 123.395 55.0985C124.274 55.9773 124.967 57.144 125.474 58.5985C125.99 60.0455 126.251 61.822 126.259 63.9281C126.259 65.9053 126.035 67.6705 125.588 69.2235C125.149 70.769 124.516 72.0834 123.69 73.1667C122.865 74.25 121.868 75.0758 120.702 75.644C119.535 76.2046 118.232 76.4849 116.793 76.4849C115.24 76.4849 113.868 76.1856 112.679 75.5871C111.49 74.9811 110.531 74.1591 109.804 73.1212C109.084 72.0758 108.649 70.9015 108.497 69.5985H113.349C113.539 70.447 113.937 71.1061 114.543 71.5758C115.149 72.0379 115.899 72.269 116.793 72.269C118.308 72.269 119.459 71.6099 120.247 70.2917C121.035 68.9659 121.433 67.1515 121.44 64.8485H121.281C120.933 65.5303 120.463 66.1174 119.872 66.6099C119.281 67.0947 118.603 67.4697 117.838 67.7349C117.08 68 116.274 68.1326 115.418 68.1326C114.046 68.1326 112.823 67.8106 111.747 67.1667C110.671 66.5227 109.823 65.6364 109.202 64.5076C108.58 63.3788 108.27 62.0909 108.27 60.644C108.262 59.0834 108.622 57.6932 109.349 56.4735C110.077 55.2538 111.092 54.2993 112.395 53.6099C113.705 52.9129 115.228 52.5682 116.963 52.5758ZM116.997 56.4394C116.232 56.4394 115.55 56.6212 114.952 56.9849C114.361 57.3485 113.891 57.8371 113.543 58.4508C113.202 59.0644 113.035 59.75 113.043 60.5076C113.043 61.2727 113.209 61.9621 113.543 62.5758C113.884 63.1818 114.346 63.6667 114.929 64.0303C115.52 64.3864 116.194 64.5644 116.952 64.5644C117.52 64.5644 118.046 64.4584 118.531 64.2462C119.016 64.0341 119.437 63.7424 119.793 63.3712C120.156 62.9924 120.44 62.5568 120.645 62.0644C120.849 61.572 120.952 61.0493 120.952 60.4962C120.944 59.7614 120.77 59.0871 120.429 58.4735C120.088 57.8599 119.618 57.3674 119.02 56.9962C118.421 56.625 117.747 56.4394 116.997 56.4394ZM142.406 71.8031V70.5758C142.406 69.644 142.603 68.7879 142.997 68.0076C143.399 67.2197 143.978 66.5909 144.736 66.1212C145.501 65.644 146.433 65.4053 147.531 65.4053C148.645 65.4053 149.58 65.6402 150.338 66.1099C151.103 66.5796 151.679 67.2084 152.065 67.9962C152.459 68.7765 152.656 69.6364 152.656 70.5758V71.8031C152.656 72.7349 152.459 73.5947 152.065 74.3826C151.671 75.1629 151.092 75.7879 150.327 76.2576C149.562 76.7349 148.63 76.9735 147.531 76.9735C146.418 76.9735 145.482 76.7349 144.724 76.2576C143.967 75.7879 143.391 75.1629 142.997 74.3826C142.603 73.5947 142.406 72.7349 142.406 71.8031ZM145.713 70.5758V71.8031C145.713 72.3409 145.842 72.8485 146.099 73.3258C146.365 73.8031 146.842 74.0417 147.531 74.0417C148.221 74.0417 148.69 73.8068 148.94 73.3371C149.198 72.8674 149.327 72.3561 149.327 71.8031V70.5758C149.327 70.0227 149.205 69.5076 148.963 69.0303C148.721 68.5531 148.243 68.3144 147.531 68.3144C146.849 68.3144 146.376 68.5531 146.111 69.0303C145.846 69.5076 145.713 70.0227 145.713 70.5758ZM130.463 58.4849V57.2576C130.463 56.3182 130.664 55.4584 131.065 54.678C131.467 53.8902 132.046 53.2614 132.804 52.7917C133.569 52.322 134.493 52.0871 135.577 52.0871C136.698 52.0871 137.637 52.322 138.395 52.7917C139.152 53.2614 139.728 53.8902 140.122 54.678C140.516 55.4584 140.713 56.3182 140.713 57.2576V58.4849C140.713 59.4243 140.512 60.2841 140.111 61.0644C139.717 61.8447 139.137 62.4697 138.372 62.9394C137.615 63.4015 136.683 63.6326 135.577 63.6326C134.471 63.6326 133.535 63.3977 132.77 62.9281C132.012 62.4508 131.437 61.8258 131.043 61.0531C130.656 60.2727 130.463 59.4167 130.463 58.4849ZM133.793 57.2576V58.4849C133.793 59.0379 133.921 59.5493 134.179 60.019C134.444 60.4887 134.91 60.7235 135.577 60.7235C136.274 60.7235 136.747 60.4887 136.997 60.019C137.255 59.5493 137.384 59.0379 137.384 58.4849V57.2576C137.384 56.7046 137.262 56.1894 137.02 55.7121C136.777 55.2349 136.296 54.9962 135.577 54.9962C134.902 54.9962 134.437 55.2387 134.179 55.7235C133.921 56.2084 133.793 56.7197 133.793 57.2576ZM131.963 76.1667L147.963 52.894H150.94L134.94 76.1667H131.963Z" fill="#31E981"/>
</g>
<defs>
<linearGradient id="paint0_linear_433_516" x1="103.451" y1="1.63425" x2="103.451" y2="104.167" gradientUnits="userSpaceOnUse">
<stop stop-color="#31E981"/>
<stop offset="1" stop-color="#31E981" stop-opacity="0"/>
</linearGradient>
<clipPath id="clip0_433_516">
<rect width="208" height="105" fill="white"/>
</clipPath>
</defs>
</svg>
