<svg width="208" height="104" viewBox="0 0 208 104" fill="none" xmlns="http://www.w3.org/2000/svg">
<g clip-path="url(#clip0_433_524)">
<path d="M0 104C5.78188e-07 76.8067 10.8992 50.7272 30.3 31.4986C49.7008 12.2701 76.0139 1.46756 103.451 1.46756C130.888 1.46756 157.201 12.2701 176.601 31.4986C196.002 50.7272 206.902 76.8067 206.902 104" fill="url(#paint0_linear_433_524)" fill-opacity="0.1"/>
<path d="M201.704 103.371C204.56 103.371 206.89 101.054 206.747 98.2005C205.469 72.6465 194.755 48.3993 176.576 30.2209C157.176 10.8202 130.863 -0.0789155 103.426 -0.0789185C75.9896 -0.0789214 49.6767 10.8202 30.276 30.2209C12.0976 48.3993 1.38322 72.6465 0.105396 98.2005C-0.0372742 101.054 2.29203 103.371 5.14873 103.371V103.371C8.00542 103.371 10.3062 101.053 10.4648 98.2006C11.7325 75.3922 21.3531 53.7739 37.5911 37.5359C55.0516 20.0753 78.7333 10.2661 103.426 10.2661C128.119 10.2661 151.801 20.0753 169.261 37.5359C185.499 53.7739 195.12 75.3922 196.388 98.2006C196.546 101.053 198.847 103.371 201.704 103.371V103.371Z" fill="white" fill-opacity="0.1"/>
<path d="M5.17251 104.45C2.31581 104.45 -0.0134862 102.132 0.129231 99.2792C1.28249 76.2238 10.1218 54.1587 25.3161 36.6488C41.643 17.8338 64.211 5.54207 88.8738 2.03203C113.537 -1.47801 138.638 4.02935 159.566 17.5423C179.042 30.1178 193.686 48.8407 201.226 70.6589C202.159 73.3589 200.569 76.2344 197.825 77.0314V77.0314C195.082 77.8284 192.226 76.2443 191.278 73.5495C184.443 54.1222 171.337 37.4571 153.954 26.2331C135.119 14.0714 112.528 9.11479 90.3314 12.2738C68.1349 15.4329 47.8237 26.4954 33.1295 43.429C19.5682 59.057 11.6317 78.7169 10.4886 99.2796C10.33 102.132 8.0292 104.45 5.17251 104.45V104.45Z" fill="url(#paint1_linear_433_524)"/>
<path d="M95.8068 43.4091C97.0038 43.4091 98.1553 43.6098 99.2614 44.0114C100.375 44.4129 101.367 45.053 102.239 45.9318C103.117 46.8106 103.811 47.9773 104.318 49.4318C104.833 50.8788 105.095 52.6553 105.102 54.7614C105.102 56.7386 104.879 58.5038 104.432 60.0568C103.992 61.6023 103.36 62.9167 102.534 64C101.708 65.0833 100.712 65.9091 99.5455 66.4773C98.3788 67.0379 97.0758 67.3182 95.6364 67.3182C94.0833 67.3182 92.7121 67.0189 91.5227 66.4205C90.3333 65.8144 89.375 64.9924 88.6477 63.9545C87.928 62.9091 87.4924 61.7348 87.3409 60.4318H92.1932C92.3826 61.2803 92.7803 61.9394 93.3864 62.4091C93.9924 62.8712 94.7424 63.1023 95.6364 63.1023C97.1515 63.1023 98.303 62.4432 99.0909 61.125C99.8788 59.7992 100.277 57.9848 100.284 55.6818H100.125C99.7765 56.3636 99.3068 56.9508 98.7159 57.4432C98.125 57.928 97.447 58.303 96.6818 58.5682C95.9242 58.8333 95.1174 58.9659 94.2614 58.9659C92.8902 58.9659 91.6667 58.6439 90.5909 58C89.5152 57.3561 88.6667 56.4697 88.0455 55.3409C87.4242 54.2121 87.1136 52.9242 87.1136 51.4773C87.1061 49.9167 87.4659 48.5265 88.1932 47.3068C88.9205 46.0871 89.9356 45.1326 91.2386 44.4432C92.5492 43.7462 94.072 43.4015 95.8068 43.4091ZM95.8409 47.2727C95.0758 47.2727 94.3939 47.4545 93.7955 47.8182C93.2045 48.1818 92.7348 48.6705 92.3864 49.2841C92.0455 49.8977 91.8788 50.5833 91.8864 51.3409C91.8864 52.1061 92.053 52.7955 92.3864 53.4091C92.7273 54.0152 93.1894 54.5 93.7727 54.8636C94.3636 55.2197 95.0379 55.3977 95.7955 55.3977C96.3636 55.3977 96.8902 55.2917 97.375 55.0795C97.8598 54.8674 98.2803 54.5758 98.6364 54.2045C99 53.8258 99.2841 53.3902 99.4886 52.8977C99.6932 52.4053 99.7955 51.8826 99.7955 51.3295C99.7879 50.5947 99.6136 49.9205 99.2727 49.3068C98.9318 48.6932 98.4621 48.2008 97.8636 47.8295C97.2652 47.4583 96.5909 47.2727 95.8409 47.2727ZM118.636 43.7273V67H113.716V48.3977H113.58L108.25 51.7386V47.375L114.011 43.7273H118.636Z" fill="#49E573"/>
<path d="M94.7599 72.75L95.3139 73.4148C95.0985 73.6241 94.8492 73.7702 94.5661 73.8533C94.2829 73.9364 93.9628 73.9872 93.6058 74.0057C93.2488 74.0241 92.8518 74.0426 92.4148 74.0611C91.9223 74.0795 91.5146 74.1996 91.1914 74.4212C90.8683 74.6428 90.619 74.9628 90.4435 75.3814C90.2681 75.8 90.1558 76.3139 90.1065 76.9233H90.1989C90.4389 76.4801 90.7713 76.1539 91.196 75.9446C91.6207 75.7353 92.0762 75.6307 92.5625 75.6307C93.1165 75.6307 93.6151 75.7599 94.0582 76.0185C94.5014 76.277 94.8523 76.6602 95.1108 77.168C95.3693 77.6758 95.4986 78.3021 95.4986 79.0469C95.4986 79.7886 95.3662 80.4287 95.1016 80.9673C94.84 81.5059 94.4722 81.9214 93.9982 82.2138C93.5273 82.5031 92.9749 82.6477 92.3409 82.6477C91.7069 82.6477 91.1514 82.4985 90.6744 82.1999C90.1973 81.8983 89.8265 81.4521 89.5618 80.8612C89.2971 80.2672 89.1648 79.5331 89.1648 78.6591V77.902C89.1648 76.3232 89.4325 75.1259 89.968 74.3104C90.5066 73.4948 91.3161 73.0732 92.3963 73.0455C92.7779 73.0331 93.118 73.0301 93.4165 73.0362C93.7151 73.0424 93.9751 73.0285 94.1967 72.9947C94.4183 72.9608 94.6061 72.8793 94.7599 72.75ZM92.3409 81.669C92.7687 81.669 93.1365 81.5613 93.4442 81.3459C93.7551 81.1304 93.9936 80.8273 94.1598 80.4364C94.326 80.0425 94.4091 79.5793 94.4091 79.0469C94.4091 78.5298 94.3245 78.0897 94.1552 77.7266C93.989 77.3634 93.7505 77.0864 93.4396 76.8956C93.1288 76.7048 92.7564 76.6094 92.3224 76.6094C92.0054 76.6094 91.7208 76.6632 91.4684 76.771C91.216 76.8787 91.0006 77.0372 90.8221 77.2464C90.6436 77.4557 90.5051 77.7112 90.4066 78.0128C90.3112 78.3144 90.2604 78.6591 90.2543 79.0469C90.2543 79.8409 90.4405 80.4764 90.8129 80.9535C91.1853 81.4305 91.6946 81.669 92.3409 81.669ZM99.2518 82.6662C98.8024 82.6662 98.3946 82.5816 98.0284 82.4123C97.6622 82.2399 97.3713 81.9922 97.1559 81.669C96.9405 81.3428 96.8327 80.9489 96.8327 80.4872C96.8327 80.081 96.9128 79.7517 97.0728 79.4993C97.2328 79.2438 97.4467 79.0438 97.7145 78.8991C97.9822 78.7545 98.2777 78.6468 98.6009 78.576C98.9271 78.5021 99.2549 78.4437 99.5842 78.4006C100.015 78.3452 100.364 78.3036 100.632 78.2759C100.903 78.2451 101.1 78.1944 101.223 78.1236C101.349 78.0528 101.412 77.9297 101.412 77.7543V77.7173C101.412 77.2618 101.288 76.9079 101.038 76.6555C100.792 76.4032 100.418 76.277 99.9165 76.277C99.3964 76.277 98.9886 76.3909 98.6932 76.6186C98.3977 76.8464 98.19 77.0895 98.07 77.348L97.0359 76.9787C97.2205 76.5478 97.4667 76.2124 97.7745 75.9723C98.0853 75.7292 98.4239 75.5599 98.7901 75.4645C99.1594 75.366 99.5226 75.3168 99.8796 75.3168C100.107 75.3168 100.369 75.3445 100.664 75.3999C100.963 75.4522 101.251 75.5614 101.528 75.7276C101.808 75.8938 102.04 76.1446 102.225 76.4801C102.409 76.8156 102.502 77.2649 102.502 77.8281V82.5H101.412V81.5398H101.357C101.283 81.6937 101.16 81.8583 100.988 82.0337C100.815 82.2092 100.586 82.3584 100.3 82.4815C100.013 82.6046 99.6642 82.6662 99.2518 82.6662ZM99.418 81.6875C99.8488 81.6875 100.212 81.6029 100.507 81.4336C100.806 81.2643 101.031 81.0458 101.181 80.7781C101.335 80.5103 101.412 80.2287 101.412 79.9332V78.9361C101.366 78.9915 101.265 79.0423 101.108 79.0884C100.954 79.1315 100.775 79.17 100.572 79.2038C100.372 79.2346 100.177 79.2623 99.9858 79.2869C99.7981 79.3085 99.6457 79.3269 99.5288 79.3423C99.2456 79.3793 98.9809 79.4393 98.7347 79.5224C98.4916 79.6024 98.2946 79.724 98.1438 79.8871C97.9961 80.0471 97.9222 80.2656 97.9222 80.5426C97.9222 80.9212 98.0623 81.2074 98.3423 81.4013C98.6255 81.5921 98.984 81.6875 99.418 81.6875ZM103.862 82.5V81.4844H104.121C104.333 81.4844 104.51 81.4428 104.652 81.3597C104.793 81.2736 104.907 81.1243 104.994 80.9119C105.083 80.6965 105.15 80.398 105.197 80.0163C105.246 79.6316 105.281 79.1423 105.303 78.5483L105.432 75.4091H110.159V82.5H109.07V76.4247H106.466L106.355 78.9545C106.331 79.5362 106.278 80.0487 106.198 80.4918C106.121 80.9319 106.003 81.3013 105.843 81.5998C105.686 81.8983 105.477 82.123 105.215 82.2738C104.954 82.4246 104.626 82.5 104.232 82.5H103.862ZM111.53 82.5V81.4844H111.789C112.001 81.4844 112.178 81.4428 112.32 81.3597C112.461 81.2736 112.575 81.1243 112.661 80.9119C112.751 80.6965 112.818 80.398 112.865 80.0163C112.914 79.6316 112.949 79.1423 112.971 78.5483L113.1 75.4091H117.827V82.5H116.738V76.4247H114.134L114.023 78.9545C113.999 79.5362 113.946 80.0487 113.866 80.4918C113.789 80.9319 113.671 81.3013 113.511 81.5998C113.354 81.8983 113.145 82.123 112.883 82.2738C112.621 82.4246 112.294 82.5 111.9 82.5H111.53Z" fill="#49E573" fill-opacity="0.67"/>
</g>
<defs>
<linearGradient id="paint0_linear_433_524" x1="103.451" y1="1.46756" x2="103.451" y2="104" gradientUnits="userSpaceOnUse">
<stop stop-color="#31E981"/>
<stop offset="1" stop-color="#31E981" stop-opacity="0"/>
</linearGradient>
<linearGradient id="paint1_linear_433_524" x1="6.2149e-06" y1="104.45" x2="206.9" y2="104.45" gradientUnits="userSpaceOnUse">
<stop stop-color="#FF674D"/>
<stop offset="0.496278" stop-color="#F7CB15"/>
<stop offset="1" stop-color="#31E981"/>
</linearGradient>
<clipPath id="clip0_433_524">
<rect width="208" height="104" fill="white"/>
</clipPath>
</defs>
</svg>
