<svg width="24" height="25" viewBox="0 0 24 25" fill="none" xmlns="http://www.w3.org/2000/svg">
<path d="M17.5334 17.656C17.6272 17.5503 17.7411 17.4641 17.8683 17.4025C17.9956 17.3408 18.1337 17.3049 18.2749 17.2968L18.9044 13.7515C18.8363 13.7211 18.7715 13.6836 18.7113 13.6395L15.9634 16.0687C16.0473 16.2241 16.0911 16.398 16.0909 16.5747C16.0909 16.6699 16.0779 16.7648 16.0523 16.8566L17.5334 17.656ZM23.8768 20.3923L19.9665 13.6202C19.7991 13.7481 19.5974 13.8234 19.3871 13.8365L18.748 17.3818C18.9251 17.4575 19.0783 17.5798 19.1914 17.7356C19.3046 17.8914 19.3734 18.075 19.3906 18.2667C19.4078 18.4585 19.3727 18.6514 19.2891 18.8248C19.2055 18.9983 19.0764 19.1459 18.9157 19.2518C18.7549 19.3578 18.5685 19.4183 18.376 19.4268C18.1837 19.4353 17.9926 19.3916 17.8231 19.3002C17.6536 19.2088 17.512 19.0732 17.4134 18.9078C17.3148 18.7425 17.2628 18.5534 17.263 18.3608C17.2632 18.2662 17.2761 18.172 17.3016 18.0809L15.8166 17.2795C15.6381 17.4838 15.3878 17.6117 15.1176 17.6367L14.7141 20.6472C14.9441 20.7312 15.1376 20.893 15.261 21.1046C15.3844 21.3162 15.43 21.5642 15.3899 21.8058H23.0599C23.225 21.8054 23.387 21.7617 23.5298 21.679C23.6727 21.5963 23.7913 21.4775 23.8738 21.3346C23.9563 21.1917 23.9998 21.0296 24 20.8646C24.0002 20.6995 23.9571 20.5374 23.8749 20.3942L23.8768 20.3923ZM12.0511 12.4751C11.9409 12.302 11.8826 12.101 11.8831 11.8958C11.8837 11.7023 11.9371 11.5126 12.0376 11.3473L8.34941 7.77687C8.23679 7.84941 8.11172 7.90047 7.98058 7.9275L7.70827 16.4877C7.8066 16.5148 7.90082 16.555 7.98827 16.6075L12.0511 12.4751ZM8.83796 6.87507C8.83815 7.0684 8.78538 7.25809 8.68538 7.42352L12.3737 10.994C12.5459 10.8815 12.7473 10.8218 12.9529 10.8221C13.2182 10.8228 13.4737 10.9219 13.67 11.1003C13.8662 11.2787 13.9892 11.5236 14.015 11.7876L18.3289 12.3785C18.3806 12.2449 18.4585 12.1229 18.558 12.0198C18.6575 11.9166 18.7765 11.8344 18.9082 11.778L12.812 1.22103C12.7295 1.07785 12.6108 0.95892 12.4677 0.876229C12.3247 0.793538 12.1623 0.75 11.9971 0.75C11.8318 0.75 11.6696 0.793538 11.5265 0.876229C11.3834 0.95892 11.2647 1.07785 11.1822 1.22103L8.41116 6.02156C8.54373 6.1209 8.65133 6.24974 8.7254 6.39789C8.79947 6.54608 8.83801 6.70945 8.83796 6.87507ZM14.0189 16.9358L8.4942 17.6232C8.48632 17.6959 8.47143 17.7677 8.44979 17.8376L13.5709 20.8963C13.747 20.7122 13.9835 20.5978 14.2371 20.5738L14.6426 17.5633C14.5004 17.5107 14.371 17.4281 14.2634 17.3211C14.1558 17.2142 14.0725 17.0854 14.0189 16.9435V16.9358ZM12.9549 12.9636C12.7593 12.9634 12.5675 12.9093 12.4007 12.8072L8.34554 16.9473C8.38666 17.0115 8.42033 17.0802 8.44592 17.152L13.9706 16.4646C13.9865 16.3191 14.032 16.1783 14.1044 16.0512C14.1768 15.9239 14.2745 15.8129 14.3916 15.725L13.1635 12.9443C13.0947 12.9573 13.0249 12.9637 12.9549 12.9636ZM8.20069 18.2682C8.0845 18.3883 7.94166 18.4795 7.78372 18.5343C7.62579 18.5891 7.45721 18.6059 7.29154 18.5835C7.12587 18.5611 6.96784 18.5001 6.83011 18.4053C6.69243 18.3105 6.57891 18.1847 6.49882 18.038C6.41873 17.8913 6.37427 17.7278 6.36902 17.5607C6.36377 17.3936 6.39786 17.2276 6.46859 17.0762C6.53932 16.9247 6.64472 16.792 6.7762 16.6888C6.90767 16.5856 7.06159 16.5147 7.22554 16.482L7.4978 7.92172C7.45014 7.90968 7.40363 7.89354 7.35878 7.87344L0.125124 20.3923C0.0429824 20.5354 -0.000190397 20.6976 6.3119e-07 20.8626C0.000191659 21.0277 0.0436989 21.1898 0.126223 21.3327C0.208747 21.4756 0.327328 21.5944 0.470169 21.6771C0.612962 21.7597 0.775002 21.8035 0.94005 21.8039H13.2851C13.2767 21.7515 13.2722 21.6986 13.2716 21.6456C13.2711 21.5347 13.2888 21.4244 13.3237 21.3192L8.20069 18.2682ZM15.0192 15.5184C15.2403 15.5166 15.4564 15.5841 15.6371 15.7115L18.385 13.2823C18.3162 13.1556 18.2742 13.0163 18.2614 12.8729L13.9474 12.282C13.874 12.4689 13.7504 12.6319 13.5902 12.7532L14.8203 15.5319C14.8858 15.5182 14.9523 15.5105 15.0192 15.5087V15.5184Z" fill="url(#paint0_radial_410_487)"/>
<defs>
<radialGradient id="paint0_radial_410_487" cx="0" cy="0" r="1" gradientUnits="userSpaceOnUse" gradientTransform="translate(13.9036 -2.69448) rotate(119.574) scale(28.1705 32.1095)">
<stop stop-color="#BF80FF"/>
<stop offset="0.513542" stop-color="#BF80FF"/>
<stop offset="1" stop-color="#FF7881"/>
</radialGradient>
</defs>
</svg>
