<svg width="282" height="127" viewBox="0 0 282 127" fill="none" xmlns="http://www.w3.org/2000/svg">
<path d="M39 104C39 76.8067 49.8992 50.7272 69.3 31.4986C88.7008 12.2701 115.014 1.46756 142.451 1.46756C169.888 1.46756 196.201 12.2701 215.601 31.4986C235.002 50.7272 245.902 76.8067 245.902 104" fill="url(#paint0_linear_434_534)" fill-opacity="0.1"/>
<path d="M44.1725 104.45C41.3158 104.45 38.9865 102.133 39.1292 99.2794C40.3904 74.0594 50.8438 50.1004 68.6137 31.9925C87.5941 12.6509 113.406 1.52913 140.5 1.01836C167.594 0.507581 193.807 10.6485 213.503 29.261C231.943 46.6864 243.292 70.2343 245.503 95.3889C245.753 98.2346 243.512 100.638 240.658 100.746V100.746C237.803 100.854 235.416 98.6238 235.151 95.7795C233.052 73.3343 222.867 52.3436 206.398 36.7799C188.671 20.0287 165.08 10.9018 140.695 11.3615C116.31 11.8212 93.0797 21.8308 75.9973 39.2382C60.1259 55.4116 50.7396 76.7712 49.4886 99.2796C49.33 102.132 47.0292 104.45 44.1725 104.45V104.45Z" fill="#FF674D"/>
<path d="M240.727 104.45C243.584 104.45 245.913 102.132 245.771 99.2792C244.58 75.4758 235.198 52.7512 219.129 35.0073C201.899 15.9824 178.212 4.04201 152.671 1.50613C127.129 -1.02975 101.557 6.02002 80.9228 21.2856C61.6781 35.5234 48.0108 55.9595 42.163 79.0641C41.4621 81.8335 43.2902 84.5639 46.0911 85.1256V85.1256C48.892 85.6873 51.6038 83.8669 52.3201 81.1014C57.653 60.513 69.8946 42.313 87.0756 29.6021C105.646 15.863 128.661 9.51822 151.649 11.8005C174.636 14.0828 195.954 24.8292 211.461 41.9516C225.807 57.7927 234.231 78.0445 235.411 99.2796C235.57 102.132 237.871 104.45 240.727 104.45V104.45Z" fill="#31E981"/>
<path d="M104.168 45.4489V68.7216H99.2472V50.1193H99.1108L93.7812 53.4602V49.0966L99.5426 45.4489H104.168ZM119.824 45.4489V68.7216H114.903V50.1193H114.767L109.438 53.4602V49.0966L115.199 45.4489H119.824ZM141.693 69.0398C140.496 69.0322 139.341 68.8314 138.227 68.4375C137.121 68.0436 136.129 67.4034 135.25 66.517C134.371 65.6307 133.674 64.4564 133.159 62.9943C132.652 61.5322 132.398 59.7367 132.398 57.608C132.405 55.6534 132.629 53.9072 133.068 52.3693C133.515 50.8239 134.152 49.5133 134.977 48.4375C135.811 47.3617 136.807 46.5436 137.966 45.983C139.125 45.4148 140.424 45.1307 141.864 45.1307C143.417 45.1307 144.788 45.4337 145.977 46.0398C147.167 46.6383 148.121 47.4526 148.841 48.483C149.568 49.5133 150.008 50.6686 150.159 51.9489H145.307C145.117 51.1383 144.72 50.5019 144.114 50.0398C143.508 49.5776 142.758 49.3466 141.864 49.3466C140.348 49.3466 139.197 50.0057 138.409 51.3239C137.629 52.642 137.231 54.4337 137.216 56.6989H137.375C137.723 56.0095 138.193 55.4223 138.784 54.9375C139.383 54.4451 140.061 54.0701 140.818 53.8125C141.583 53.5473 142.39 53.4148 143.239 53.4148C144.617 53.4148 145.845 53.7405 146.92 54.392C147.996 55.036 148.845 55.9223 149.466 57.0511C150.087 58.1799 150.398 59.4716 150.398 60.9261C150.398 62.5019 150.03 63.9034 149.295 65.1307C148.568 66.358 147.549 67.3201 146.239 68.017C144.936 68.7064 143.42 69.0473 141.693 69.0398ZM141.67 65.1761C142.428 65.1761 143.106 64.9943 143.705 64.6307C144.303 64.267 144.773 63.7746 145.114 63.1534C145.455 62.5322 145.625 61.8352 145.625 61.0625C145.625 60.2898 145.455 59.5966 145.114 58.983C144.78 58.3693 144.318 57.8807 143.727 57.517C143.136 57.1534 142.462 56.9716 141.705 56.9716C141.136 56.9716 140.61 57.0776 140.125 57.2898C139.648 57.5019 139.227 57.7973 138.864 58.1761C138.508 58.5549 138.227 58.9943 138.023 59.4943C137.818 59.9867 137.716 60.5133 137.716 61.0739C137.716 61.8239 137.886 62.5095 138.227 63.1307C138.576 63.7519 139.045 64.2481 139.636 64.6193C140.235 64.9905 140.913 65.1761 141.67 65.1761ZM153.534 64.6307V60.7557L163.25 45.4489H166.591V50.8125H164.614L158.489 60.5057V60.6875H172.295V64.6307H153.534ZM164.705 68.7216V63.4489L164.795 61.733V45.4489H169.409V68.7216H164.705ZM175.574 68.7216V65.1761L183.858 57.5057C184.563 56.8239 185.153 56.2102 185.631 55.6648C186.116 55.1193 186.483 54.5852 186.733 54.0625C186.983 53.5322 187.108 52.9602 187.108 52.3466C187.108 51.6648 186.953 51.0776 186.642 50.5852C186.331 50.0852 185.907 49.7026 185.369 49.4375C184.831 49.1648 184.222 49.0284 183.54 49.0284C182.828 49.0284 182.206 49.1723 181.676 49.4602C181.146 49.7481 180.737 50.161 180.449 50.6989C180.161 51.2367 180.017 51.8769 180.017 52.6193H175.347C175.347 51.0966 175.691 49.7746 176.381 48.6534C177.07 47.5322 178.036 46.6648 179.278 46.0511C180.521 45.4375 181.953 45.1307 183.574 45.1307C185.241 45.1307 186.691 45.4261 187.926 46.017C189.169 46.6004 190.134 47.411 190.824 48.4489C191.513 49.4867 191.858 50.6761 191.858 52.017C191.858 52.8958 191.684 53.7633 191.335 54.6193C190.994 55.4754 190.384 56.4261 189.506 57.4716C188.627 58.5095 187.388 59.7557 185.79 61.2102L182.392 64.5398V64.6989H192.165V68.7216H175.574Z" fill="#31E981"/>
<path d="M96.4075 87.7216V81.1761H101.555V87.7216H100.55V82.1136H97.4132V87.7216H96.4075ZM106.051 87.858C105.46 87.858 104.942 87.7173 104.496 87.4361C104.052 87.1548 103.706 86.7614 103.456 86.2557C103.209 85.75 103.085 85.1591 103.085 84.483C103.085 83.8011 103.209 83.206 103.456 82.6974C103.706 82.1889 104.052 81.794 104.496 81.5128C104.942 81.2315 105.46 81.0909 106.051 81.0909C106.642 81.0909 107.159 81.2315 107.602 81.5128C108.048 81.794 108.395 82.1889 108.642 82.6974C108.892 83.206 109.017 83.8011 109.017 84.483C109.017 85.1591 108.892 85.75 108.642 86.2557C108.395 86.7614 108.048 87.1548 107.602 87.4361C107.159 87.7173 106.642 87.858 106.051 87.858ZM106.051 86.9545C106.5 86.9545 106.869 86.8395 107.159 86.6094C107.449 86.3793 107.663 86.0767 107.802 85.7017C107.942 85.3267 108.011 84.9205 108.011 84.483C108.011 84.0455 107.942 83.6378 107.802 83.2599C107.663 82.8821 107.449 82.5767 107.159 82.3437C106.869 82.1108 106.5 81.9943 106.051 81.9943C105.602 81.9943 105.233 82.1108 104.943 82.3437C104.653 82.5767 104.439 82.8821 104.3 83.2599C104.16 83.6378 104.091 84.0455 104.091 84.483C104.091 84.9205 104.16 85.3267 104.3 85.7017C104.439 86.0767 104.653 86.3793 104.943 86.6094C105.233 86.8395 105.602 86.9545 106.051 86.9545ZM109.973 87.7216V86.7841H110.211C110.407 86.7841 110.571 86.7457 110.701 86.669C110.832 86.5895 110.937 86.4517 111.017 86.2557C111.099 86.0568 111.161 85.7812 111.204 85.429C111.249 85.0739 111.282 84.6222 111.302 84.0739L111.421 81.1761H115.785V87.7216H114.779V82.1136H112.376L112.274 84.4489C112.251 84.9858 112.203 85.4588 112.129 85.8679C112.058 86.2741 111.948 86.6151 111.801 86.8906C111.656 87.1662 111.463 87.3736 111.221 87.5128C110.98 87.652 110.677 87.7216 110.313 87.7216H109.973ZM120.289 87.858C119.698 87.858 119.18 87.7173 118.734 87.4361C118.291 87.1548 117.944 86.7614 117.694 86.2557C117.447 85.75 117.323 85.1591 117.323 84.483C117.323 83.8011 117.447 83.206 117.694 82.6974C117.944 82.1889 118.291 81.794 118.734 81.5128C119.18 81.2315 119.698 81.0909 120.289 81.0909C120.88 81.0909 121.397 81.2315 121.84 81.5128C122.286 81.794 122.633 82.1889 122.88 82.6974C123.13 83.206 123.255 83.8011 123.255 84.483C123.255 85.1591 123.13 85.75 122.88 86.2557C122.633 86.7614 122.286 87.1548 121.84 87.4361C121.397 87.7173 120.88 87.858 120.289 87.858ZM120.289 86.9545C120.738 86.9545 121.107 86.8395 121.397 86.6094C121.687 86.3793 121.901 86.0767 122.041 85.7017C122.18 85.3267 122.249 84.9205 122.249 84.483C122.249 84.0455 122.18 83.6378 122.041 83.2599C121.901 82.8821 121.687 82.5767 121.397 82.3437C121.107 82.1108 120.738 81.9943 120.289 81.9943C119.84 81.9943 119.471 82.1108 119.181 82.3437C118.892 82.5767 118.677 82.8821 118.538 83.2599C118.399 83.6378 118.329 84.0455 118.329 84.483C118.329 84.9205 118.399 85.3267 118.538 85.7017C118.677 86.0767 118.892 86.3793 119.181 86.6094C119.471 86.8395 119.84 86.9545 120.289 86.9545ZM124.112 87.7216L126.771 84.3977L124.146 81.1761H125.339L127.521 83.9716H128.066V81.1761H129.072V83.9716H129.6L131.782 81.1761H132.975L130.367 84.3977L133.009 87.7216H131.799L129.583 84.9091H129.072V87.7216H128.066V84.9091H127.555L125.322 87.7216H124.112ZM135.452 86.2386L138.606 81.1761H139.765V87.7216H138.759V82.6591L135.623 87.7216H134.447V81.1761H135.452V86.2386ZM140.716 82.1136V81.1761H146.034V82.1136H143.887V87.7216H142.881V82.1136H140.716ZM149.906 87.858C149.275 87.858 148.731 87.7187 148.274 87.4403C147.819 87.1591 147.468 86.767 147.221 86.2642C146.977 85.7585 146.855 85.1705 146.855 84.5C146.855 83.8295 146.977 83.2386 147.221 82.7273C147.468 82.2131 147.812 81.8125 148.252 81.5256C148.696 81.2358 149.213 81.0909 149.803 81.0909C150.144 81.0909 150.481 81.1477 150.813 81.2614C151.146 81.375 151.448 81.5597 151.721 81.8153C151.994 82.0682 152.211 82.4034 152.373 82.821C152.535 83.2386 152.616 83.7528 152.616 84.3636V84.7898H147.571V83.9205H151.593C151.593 83.5511 151.519 83.2216 151.372 82.9318C151.227 82.642 151.019 82.4133 150.749 82.2457C150.482 82.0781 150.167 81.9943 149.803 81.9943C149.403 81.9943 149.056 82.0937 148.764 82.2926C148.474 82.4886 148.251 82.7443 148.095 83.0597C147.938 83.375 147.86 83.7131 147.86 84.0739V84.6534C147.86 85.1477 147.946 85.5668 148.116 85.9105C148.289 86.2514 148.529 86.5114 148.836 86.6903C149.143 86.8665 149.499 86.9545 149.906 86.9545C150.17 86.9545 150.409 86.9176 150.622 86.8437C150.838 86.767 151.024 86.6534 151.18 86.5028C151.336 86.3494 151.457 86.1591 151.542 85.9318L152.514 86.2045C152.411 86.5341 152.24 86.8239 151.998 87.0739C151.757 87.321 151.458 87.5142 151.103 87.6534C150.748 87.7898 150.349 87.858 149.906 87.858ZM153.566 87.7216V86.7841H153.805C154.001 86.7841 154.164 86.7457 154.295 86.669C154.426 86.5895 154.531 86.4517 154.61 86.2557C154.693 86.0568 154.755 85.7812 154.798 85.429C154.843 85.0739 154.876 84.6222 154.896 84.0739L155.015 81.1761H159.379V87.7216H158.373V82.1136H155.97L155.867 84.4489C155.845 84.9858 155.796 85.4588 155.723 85.8679C155.651 86.2741 155.542 86.6151 155.394 86.8906C155.249 87.1662 155.056 87.3736 154.815 87.5128C154.573 87.652 154.271 87.7216 153.907 87.7216H153.566ZM162.093 83.5455H163.968C164.735 83.5455 165.322 83.7401 165.728 84.1293C166.134 84.5185 166.338 85.0114 166.338 85.608C166.338 86 166.247 86.3565 166.065 86.6776C165.883 86.9957 165.616 87.25 165.264 87.4403C164.911 87.6278 164.48 87.7216 163.968 87.7216H161.224V81.1761H162.23V86.7841H163.968C164.366 86.7841 164.693 86.679 164.948 86.4687C165.204 86.2585 165.332 85.9886 165.332 85.6591C165.332 85.3125 165.204 85.0298 164.948 84.8111C164.693 84.5923 164.366 84.483 163.968 84.483H162.093V83.5455ZM172.249 83.9886V84.9261H168.636V83.9886H172.249ZM168.874 81.1761V87.7216H167.868V81.1761H168.874ZM173.016 81.1761V87.7216H172.011V81.1761H173.016ZM175.722 83.5455H177.597C178.364 83.5455 178.951 83.7401 179.357 84.1293C179.763 84.5185 179.966 85.0114 179.966 85.608C179.966 86 179.876 86.3565 179.694 86.6776C179.512 86.9957 179.245 87.25 178.893 87.4403C178.54 87.6278 178.109 87.7216 177.597 87.7216H174.853V81.1761H175.859V86.7841H177.597C177.995 86.7841 178.322 86.679 178.577 86.4687C178.833 86.2585 178.961 85.9886 178.961 85.6591C178.961 85.3125 178.833 85.0298 178.577 84.8111C178.322 84.5923 177.995 84.483 177.597 84.483H175.722V83.5455ZM181.006 87.7216V81.1761H182.012V87.7216H181.006ZM184.603 81.1761L186.171 83.8523L187.739 81.1761H188.898L186.785 84.4489L188.898 87.7216H187.739L186.171 85.1818L184.603 87.7216H183.444L185.523 84.4489L183.444 81.1761H184.603ZM124.889 99.858C124.298 99.858 123.78 99.7173 123.333 99.4361C122.89 99.1548 122.544 98.7614 122.294 98.2557C122.047 97.75 121.923 97.1591 121.923 96.483C121.923 95.8011 122.047 95.206 122.294 94.6974C122.544 94.1889 122.89 93.794 123.333 93.5128C123.78 93.2315 124.298 93.0909 124.889 93.0909C125.48 93.0909 125.997 93.2315 126.44 93.5128C126.886 93.794 127.233 94.1889 127.48 94.6974C127.73 95.206 127.855 95.8011 127.855 96.483C127.855 97.1591 127.73 97.75 127.48 98.2557C127.233 98.7614 126.886 99.1548 126.44 99.4361C125.997 99.7173 125.48 99.858 124.889 99.858ZM124.889 98.9545C125.338 98.9545 125.707 98.8395 125.997 98.6094C126.287 98.3793 126.501 98.0767 126.64 97.7017C126.78 97.3267 126.849 96.9205 126.849 96.483C126.849 96.0455 126.78 95.6378 126.64 95.2599C126.501 94.8821 126.287 94.5767 125.997 94.3437C125.707 94.1108 125.338 93.9943 124.889 93.9943C124.44 93.9943 124.071 94.1108 123.781 94.3437C123.491 94.5767 123.277 94.8821 123.137 95.2599C122.998 95.6378 122.929 96.0455 122.929 96.483C122.929 96.9205 122.998 97.3267 123.137 97.7017C123.277 98.0767 123.491 98.3793 123.781 98.6094C124.071 98.8395 124.44 98.9545 124.889 98.9545ZM134.538 93.1761V98.7841H135.458V101.835H134.452V99.7216H129.39V93.1761H130.396V98.7841H133.532V93.1761H134.538ZM139.681 99.858C139.05 99.858 138.506 99.7187 138.049 99.4403C137.594 99.1591 137.244 98.767 136.996 98.2642C136.752 97.7585 136.63 97.1705 136.63 96.5C136.63 95.8295 136.752 95.2386 136.996 94.7273C137.244 94.2131 137.587 93.8125 138.028 93.5256C138.471 93.2358 138.988 93.0909 139.579 93.0909C139.92 93.0909 140.256 93.1477 140.589 93.2614C140.921 93.375 141.224 93.5597 141.496 93.8153C141.769 94.0682 141.987 94.4034 142.148 94.821C142.31 95.2386 142.391 95.7528 142.391 96.3636V96.7898H137.346V95.9205H141.369C141.369 95.5511 141.295 95.2216 141.147 94.9318C141.002 94.642 140.795 94.4133 140.525 94.2457C140.258 94.0781 139.943 93.9943 139.579 93.9943C139.178 93.9943 138.832 94.0937 138.539 94.2926C138.249 94.4886 138.026 94.7443 137.87 95.0597C137.714 95.375 137.636 95.7131 137.636 96.0739V96.6534C137.636 97.1477 137.721 97.5668 137.891 97.9105C138.065 98.2514 138.305 98.5114 138.612 98.6903C138.918 98.8665 139.275 98.9545 139.681 98.9545C139.945 98.9545 140.184 98.9176 140.397 98.8437C140.613 98.767 140.799 98.6534 140.955 98.5028C141.112 98.3494 141.232 98.1591 141.318 97.9318L142.289 98.2045C142.187 98.5341 142.015 98.8239 141.773 99.0739C141.532 99.321 141.234 99.5142 140.879 99.6534C140.523 99.7898 140.124 99.858 139.681 99.858ZM148.302 95.9886V96.9261H144.688V95.9886H148.302ZM144.927 93.1761V99.7216H143.921V93.1761H144.927ZM149.069 93.1761V99.7216H148.063V93.1761H149.069ZM150.906 99.7216V93.1761H151.911V96.0227H152.576L154.928 93.1761H156.224L153.582 96.3295L156.258 99.7216H154.962L152.815 96.9602H151.911V99.7216H150.906ZM158.357 98.2386L161.51 93.1761H162.669V99.7216H161.663V94.6591L158.527 99.7216H157.351V93.1761H158.357V98.2386Z" fill="#31E981" fill-opacity="0.67"/>
<path d="M14.657 124.119C14.0945 124.119 13.593 124.023 13.1527 123.83C12.7152 123.636 12.3672 123.368 12.1087 123.024C11.853 122.678 11.7138 122.276 11.6911 121.818H12.7649C12.7876 122.099 12.8842 122.342 13.0547 122.547C13.2251 122.749 13.4482 122.905 13.7237 123.016C13.9993 123.126 14.3047 123.182 14.6399 123.182C15.0149 123.182 15.3473 123.116 15.6371 122.986C15.9268 122.855 16.1541 122.673 16.3189 122.44C16.4837 122.207 16.5661 121.938 16.5661 121.631C16.5661 121.31 16.4865 121.027 16.3274 120.783C16.1683 120.536 15.9354 120.342 15.6286 120.203C15.3217 120.064 14.9467 119.994 14.5036 119.994H13.8047V119.057H14.5036C14.8501 119.057 15.1541 118.994 15.4155 118.869C15.6797 118.744 15.8857 118.568 16.0334 118.341C16.1839 118.114 16.2592 117.847 16.2592 117.54C16.2592 117.244 16.1939 116.987 16.0632 116.768C15.9325 116.55 15.7479 116.379 15.5092 116.257C15.2734 116.135 14.995 116.074 14.674 116.074C14.3729 116.074 14.0888 116.129 13.8217 116.24C13.5575 116.348 13.3416 116.506 13.174 116.713C13.0064 116.918 12.9155 117.165 12.9013 117.455H11.8786C11.8956 116.997 12.0334 116.597 12.2919 116.253C12.5504 115.906 12.8885 115.636 13.3061 115.443C13.7266 115.25 14.1882 115.153 14.6911 115.153C15.2308 115.153 15.6939 115.263 16.0803 115.482C16.4666 115.697 16.7635 115.983 16.9709 116.338C17.1783 116.693 17.282 117.077 17.282 117.489C17.282 117.98 17.1527 118.399 16.8942 118.746C16.6385 119.092 16.2905 119.332 15.8501 119.466V119.534C16.4013 119.625 16.8317 119.859 17.1413 120.237C17.451 120.612 17.6058 121.077 17.6058 121.631C17.6058 122.105 17.4766 122.531 17.218 122.909C16.9624 123.284 16.6129 123.58 16.1697 123.795C15.7266 124.011 15.2223 124.119 14.657 124.119ZM20.5962 122.807L20.5281 123.267C20.4798 123.591 20.4059 123.938 20.3065 124.307C20.2099 124.676 20.109 125.024 20.0039 125.351C19.8988 125.678 19.8121 125.938 19.744 126.131H18.9769C19.0138 125.949 19.0621 125.709 19.1218 125.411C19.1815 125.112 19.2411 124.778 19.3008 124.409C19.3633 124.043 19.4144 123.668 19.4542 123.284L19.5053 122.807H20.5962ZM25.0632 124.119C24.5007 124.119 23.9993 124.023 23.5589 123.83C23.1214 123.636 22.7734 123.368 22.5149 123.024C22.2592 122.678 22.12 122.276 22.0973 121.818H23.1712C23.1939 122.099 23.2905 122.342 23.4609 122.547C23.6314 122.749 23.8544 122.905 24.13 123.016C24.4055 123.126 24.7109 123.182 25.0462 123.182C25.4212 123.182 25.7536 123.116 26.0433 122.986C26.3331 122.855 26.5604 122.673 26.7251 122.44C26.8899 122.207 26.9723 121.938 26.9723 121.631C26.9723 121.31 26.8928 121.027 26.7337 120.783C26.5746 120.536 26.3416 120.342 26.0348 120.203C25.728 120.064 25.353 119.994 24.9098 119.994H24.2109V119.057H24.9098C25.2564 119.057 25.5604 118.994 25.8217 118.869C26.0859 118.744 26.2919 118.568 26.4396 118.341C26.5902 118.114 26.6655 117.847 26.6655 117.54C26.6655 117.244 26.6001 116.987 26.4695 116.768C26.3388 116.55 26.1541 116.379 25.9155 116.257C25.6797 116.135 25.4013 116.074 25.0803 116.074C24.7791 116.074 24.495 116.129 24.228 116.24C23.9638 116.348 23.7479 116.506 23.5803 116.713C23.4126 116.918 23.3217 117.165 23.3075 117.455H22.2848C22.3018 116.997 22.4396 116.597 22.6982 116.253C22.9567 115.906 23.2947 115.636 23.7124 115.443C24.1328 115.25 24.5945 115.153 25.0973 115.153C25.6371 115.153 26.1001 115.263 26.4865 115.482C26.8729 115.697 27.1697 115.983 27.3771 116.338C27.5845 116.693 27.6882 117.077 27.6882 117.489C27.6882 117.98 27.5589 118.399 27.3004 118.746C27.0447 119.092 26.6967 119.332 26.2564 119.466V119.534C26.8075 119.625 27.2379 119.859 27.5476 120.237C27.8572 120.612 28.0121 121.077 28.0121 121.631C28.0121 122.105 27.8828 122.531 27.6243 122.909C27.3686 123.284 27.0192 123.58 26.576 123.795C26.1328 124.011 25.6286 124.119 25.0632 124.119ZM34.2038 122.364V121.903C34.2038 121.585 34.2692 121.294 34.3999 121.03C34.5334 120.763 34.7266 120.55 34.9794 120.391C35.2351 120.229 35.5447 120.148 35.9084 120.148C36.2777 120.148 36.5874 120.229 36.8374 120.391C37.0874 120.55 37.2763 120.763 37.4041 121.03C37.532 121.294 37.5959 121.585 37.5959 121.903V122.364C37.5959 122.682 37.5305 122.974 37.3999 123.241C37.272 123.506 37.0817 123.719 36.8288 123.881C36.5788 124.04 36.272 124.119 35.9084 124.119C35.5391 124.119 35.228 124.04 34.9751 123.881C34.7223 123.719 34.5305 123.506 34.3999 123.241C34.2692 122.974 34.2038 122.682 34.2038 122.364ZM35.0732 121.903V122.364C35.0732 122.628 35.1357 122.865 35.2607 123.075C35.3857 123.283 35.6016 123.386 35.9084 123.386C36.2067 123.386 36.4169 123.283 36.5391 123.075C36.6641 122.865 36.7266 122.628 36.7266 122.364V121.903C36.7266 121.639 36.6669 121.403 36.5476 121.196C36.4283 120.986 36.2152 120.881 35.9084 120.881C35.6101 120.881 35.3956 120.986 35.2649 121.196C35.1371 121.403 35.0732 121.639 35.0732 121.903ZM29.8572 117.369V116.909C29.8572 116.591 29.9226 116.3 30.0533 116.036C30.1868 115.768 30.38 115.555 30.6328 115.396C30.8885 115.234 31.1982 115.153 31.5618 115.153C31.9311 115.153 32.2408 115.234 32.4908 115.396C32.7408 115.555 32.9297 115.768 33.0575 116.036C33.1854 116.3 33.2493 116.591 33.2493 116.909V117.369C33.2493 117.687 33.1839 117.98 33.0533 118.247C32.9254 118.511 32.7351 118.724 32.4822 118.886C32.2322 119.045 31.9254 119.125 31.5618 119.125C31.1925 119.125 30.8814 119.045 30.6286 118.886C30.3757 118.724 30.1839 118.511 30.0533 118.247C29.9226 117.98 29.8572 117.687 29.8572 117.369ZM30.7266 116.909V117.369C30.7266 117.634 30.7891 117.871 30.9141 118.081C31.0391 118.288 31.255 118.392 31.5618 118.392C31.8601 118.392 32.0703 118.288 32.1925 118.081C32.3175 117.871 32.38 117.634 32.38 117.369V116.909C32.38 116.645 32.3203 116.409 32.201 116.202C32.0817 115.991 31.8686 115.886 31.5618 115.886C31.2635 115.886 31.049 115.991 30.9183 116.202C30.7905 116.409 30.7266 116.645 30.7266 116.909ZM30.1811 124L36.1811 115.273H37.1527L31.1527 124H30.1811ZM43.255 119.636C43.255 118.562 43.3942 117.575 43.6726 116.675C43.9538 115.771 44.3544 114.94 44.8743 114.182H45.7607C45.5561 114.463 45.3643 114.81 45.1854 115.222C45.0092 115.631 44.8544 116.081 44.7209 116.572C44.5874 117.061 44.4822 117.567 44.4055 118.089C44.3317 118.612 44.2947 119.128 44.2947 119.636C44.2947 120.312 44.3601 120.999 44.4908 121.695C44.6214 122.391 44.7976 123.037 45.0192 123.634C45.2408 124.23 45.4879 124.716 45.7607 125.091H44.8743C44.3544 124.332 43.9538 123.503 43.6726 122.602C43.3942 121.699 43.255 120.71 43.255 119.636ZM50.1765 124.119C49.614 124.119 49.1126 124.023 48.6722 123.83C48.2347 123.636 47.8867 123.368 47.6282 123.024C47.3725 122.678 47.2333 122.276 47.2106 121.818H48.2844C48.3072 122.099 48.4038 122.342 48.5742 122.547C48.7447 122.749 48.9677 122.905 49.2433 123.016C49.5188 123.126 49.8242 123.182 50.1594 123.182C50.5344 123.182 50.8668 123.116 51.1566 122.986C51.4464 122.855 51.6737 122.673 51.8384 122.44C52.0032 122.207 52.0856 121.938 52.0856 121.631C52.0856 121.31 52.006 121.027 51.8469 120.783C51.6879 120.536 51.4549 120.342 51.1481 120.203C50.8413 120.064 50.4663 119.994 50.0231 119.994H49.3242V119.057H50.0231C50.3697 119.057 50.6737 118.994 50.935 118.869C51.1992 118.744 51.4052 118.568 51.5529 118.341C51.7035 118.114 51.7788 117.847 51.7788 117.54C51.7788 117.244 51.7134 116.987 51.5827 116.768C51.4521 116.55 51.2674 116.379 51.0288 116.257C50.793 116.135 50.5146 116.074 50.1935 116.074C49.8924 116.074 49.6083 116.129 49.3413 116.24C49.0771 116.348 48.8612 116.506 48.6935 116.713C48.5259 116.918 48.435 117.165 48.4208 117.455H47.3981C47.4151 116.997 47.5529 116.597 47.8114 116.253C48.07 115.906 48.408 115.636 48.8256 115.443C49.2461 115.25 49.7077 115.153 50.2106 115.153C50.7504 115.153 51.2134 115.263 51.5998 115.482C51.9862 115.697 52.283 115.983 52.4904 116.338C52.6978 116.693 52.8015 117.077 52.8015 117.489C52.8015 117.98 52.6722 118.399 52.4137 118.746C52.158 119.092 51.81 119.332 51.3697 119.466V119.534C51.9208 119.625 52.3512 119.859 52.6609 120.237C52.9705 120.612 53.1254 121.077 53.1254 121.631C53.1254 122.105 52.9961 122.531 52.7376 122.909C52.4819 123.284 52.1325 123.58 51.6893 123.795C51.2461 124.011 50.7418 124.119 50.1765 124.119ZM57.6467 115.153C58.0046 115.156 58.3626 115.224 58.7205 115.358C59.0785 115.491 59.4052 115.713 59.7006 116.023C59.9961 116.33 60.2333 116.749 60.4123 117.28C60.5913 117.811 60.6808 118.477 60.6808 119.278C60.6808 120.054 60.6069 120.743 60.4592 121.345C60.3143 121.945 60.104 122.45 59.8285 122.862C59.5558 123.274 59.2234 123.587 58.8313 123.8C58.4421 124.013 58.0018 124.119 57.5103 124.119C57.0217 124.119 56.5856 124.023 56.2021 123.83C55.8214 123.634 55.5089 123.362 55.2646 123.016C55.0231 122.666 54.8683 122.261 54.8001 121.801H55.8398C55.9336 122.202 56.1197 122.533 56.3981 122.794C56.6793 123.053 57.0501 123.182 57.5103 123.182C58.1836 123.182 58.7148 122.888 59.104 122.3C59.4961 121.712 59.6921 120.881 59.6921 119.807H59.6239C59.4648 120.045 59.2759 120.251 59.0572 120.425C58.8384 120.598 58.5955 120.732 58.3285 120.825C58.0614 120.919 57.7773 120.966 57.4762 120.966C56.9762 120.966 56.5174 120.842 56.0998 120.595C55.685 120.345 55.3526 120.003 55.1026 119.568C54.8555 119.131 54.7319 118.631 54.7319 118.068C54.7319 117.534 54.8512 117.045 55.0898 116.602C55.3313 116.156 55.6694 115.801 56.104 115.537C56.5415 115.273 57.0558 115.145 57.6467 115.153ZM57.6467 116.091C57.2887 116.091 56.9663 116.18 56.6793 116.359C56.3952 116.536 56.1694 116.774 56.0018 117.075C55.837 117.374 55.7546 117.705 55.7546 118.068C55.7546 118.432 55.8342 118.763 55.9933 119.061C56.1552 119.357 56.3754 119.592 56.6538 119.768C56.935 119.942 57.2546 120.028 57.6126 120.028C57.8825 120.028 58.1339 119.976 58.3668 119.871C58.5998 119.763 58.8029 119.616 58.9762 119.432C59.1523 119.244 59.2901 119.033 59.3896 118.797C59.489 118.558 59.5387 118.31 59.5387 118.051C59.5387 117.71 59.4563 117.391 59.2915 117.092C59.1296 116.794 58.9052 116.553 58.6183 116.368C58.3342 116.183 58.0103 116.091 57.6467 116.091ZM65.152 124.119C64.5668 124.119 64.0497 124.016 63.6009 123.808C63.1548 123.598 62.8068 123.31 62.5568 122.943C62.3068 122.574 62.1832 122.153 62.1861 121.682C62.1832 121.312 62.2557 120.972 62.4034 120.659C62.5511 120.344 62.7528 120.081 63.0085 119.871C63.267 119.658 63.5554 119.523 63.8736 119.466V119.415C63.456 119.307 63.1236 119.072 62.8764 118.712C62.6293 118.348 62.5071 117.935 62.5099 117.472C62.5071 117.028 62.6193 116.632 62.8466 116.283C63.0739 115.933 63.3864 115.658 63.7841 115.456C64.1847 115.254 64.6406 115.153 65.152 115.153C65.6577 115.153 66.1094 115.254 66.5071 115.456C66.9048 115.658 67.2173 115.933 67.4446 116.283C67.6747 116.632 67.7912 117.028 67.794 117.472C67.7912 117.935 67.6648 118.348 67.4148 118.712C67.1676 119.072 66.8395 119.307 66.4304 119.415V119.466C66.7457 119.523 67.0298 119.658 67.2827 119.871C67.5355 120.081 67.7372 120.344 67.8878 120.659C68.0384 120.972 68.1151 121.312 68.1179 121.682C68.1151 122.153 67.9872 122.574 67.7344 122.943C67.4844 123.31 67.1364 123.598 66.6903 123.808C66.2472 124.016 65.7344 124.119 65.152 124.119ZM65.152 123.182C65.5469 123.182 65.8878 123.118 66.1747 122.99C66.4616 122.862 66.6832 122.682 66.8395 122.449C66.9957 122.216 67.0753 121.943 67.0781 121.631C67.0753 121.301 66.9901 121.01 66.8224 120.757C66.6548 120.504 66.4261 120.305 66.1364 120.161C65.8494 120.016 65.5213 119.943 65.152 119.943C64.7798 119.943 64.4474 120.016 64.1548 120.161C63.8651 120.305 63.6364 120.504 63.4688 120.757C63.304 121.01 63.223 121.301 63.2259 121.631C63.223 121.943 63.2983 122.216 63.4517 122.449C63.608 122.682 63.831 122.862 64.1207 122.99C64.4105 123.118 64.7543 123.182 65.152 123.182ZM65.152 119.04C65.4645 119.04 65.7415 118.977 65.983 118.852C66.2273 118.727 66.419 118.553 66.5582 118.328C66.6974 118.104 66.7685 117.841 66.7713 117.54C66.7685 117.244 66.6989 116.987 66.5625 116.768C66.4261 116.547 66.2372 116.376 65.9957 116.257C65.7543 116.135 65.473 116.074 65.152 116.074C64.8253 116.074 64.5398 116.135 64.2955 116.257C64.0511 116.376 63.8622 116.547 63.7287 116.768C63.5952 116.987 63.5298 117.244 63.5327 117.54C63.5298 117.841 63.5966 118.104 63.733 118.328C63.8722 118.553 64.0639 118.727 64.3082 118.852C64.5526 118.977 64.8338 119.04 65.152 119.04ZM71.9158 119.636C71.9158 120.71 71.7752 121.699 71.494 122.602C71.2156 123.503 70.8164 124.332 70.2965 125.091H69.4102C69.6147 124.81 69.805 124.463 69.9812 124.051C70.1602 123.642 70.3164 123.193 70.4499 122.705C70.5835 122.213 70.6871 121.706 70.761 121.183C70.8377 120.658 70.8761 120.142 70.8761 119.636C70.8761 118.96 70.8107 118.274 70.68 117.578C70.5494 116.882 70.3732 116.236 70.1516 115.639C69.93 115.043 69.6829 114.557 69.4102 114.182H70.2965C70.8164 114.94 71.2156 115.771 71.494 116.675C71.7752 117.575 71.9158 118.562 71.9158 119.636Z" fill="#FF674D" fill-opacity="0.67"/>
<path d="M201.975 115.153C202.333 115.156 202.691 115.224 203.049 115.358C203.407 115.491 203.733 115.713 204.029 116.023C204.324 116.33 204.561 116.749 204.74 117.28C204.919 117.811 205.009 118.477 205.009 119.278C205.009 120.054 204.935 120.743 204.787 121.345C204.642 121.945 204.432 122.45 204.157 122.862C203.884 123.274 203.551 123.587 203.159 123.8C202.77 124.013 202.33 124.119 201.838 124.119C201.35 124.119 200.914 124.023 200.53 123.83C200.15 123.634 199.837 123.362 199.593 123.016C199.351 122.666 199.196 122.261 199.128 121.801H200.168C200.262 122.202 200.448 122.533 200.726 122.794C201.007 123.053 201.378 123.182 201.838 123.182C202.512 123.182 203.043 122.888 203.432 122.3C203.824 121.712 204.02 120.881 204.02 119.807H203.952C203.793 120.045 203.604 120.251 203.385 120.425C203.167 120.598 202.924 120.732 202.657 120.825C202.39 120.919 202.105 120.966 201.804 120.966C201.304 120.966 200.846 120.842 200.428 120.595C200.013 120.345 199.681 120.003 199.431 119.568C199.184 119.131 199.06 118.631 199.06 118.068C199.06 117.534 199.179 117.045 199.418 116.602C199.659 116.156 199.998 115.801 200.432 115.537C200.87 115.273 201.384 115.145 201.975 115.153ZM201.975 116.091C201.617 116.091 201.294 116.18 201.007 116.359C200.723 116.536 200.498 116.774 200.33 117.075C200.165 117.374 200.083 117.705 200.083 118.068C200.083 118.432 200.162 118.763 200.321 119.061C200.483 119.357 200.703 119.592 200.982 119.768C201.263 119.942 201.583 120.028 201.941 120.028C202.211 120.028 202.462 119.976 202.695 119.871C202.928 119.763 203.131 119.616 203.304 119.432C203.48 119.244 203.618 119.033 203.718 118.797C203.817 118.558 203.867 118.31 203.867 118.051C203.867 117.71 203.784 117.391 203.62 117.092C203.458 116.794 203.233 116.553 202.946 116.368C202.662 116.183 202.338 116.091 201.975 116.091ZM209.582 124.119C209.224 124.114 208.866 124.045 208.509 123.915C208.151 123.784 207.824 123.564 207.528 123.254C207.233 122.942 206.996 122.52 206.817 121.989C206.638 121.455 206.548 120.784 206.548 119.977C206.548 119.205 206.621 118.52 206.766 117.923C206.911 117.324 207.121 116.82 207.396 116.411C207.672 115.999 208.004 115.686 208.393 115.473C208.786 115.26 209.227 115.153 209.719 115.153C210.207 115.153 210.642 115.251 211.023 115.447C211.406 115.641 211.719 115.911 211.96 116.257C212.202 116.604 212.358 117.003 212.429 117.455H211.389C211.293 117.062 211.105 116.737 210.827 116.479C210.548 116.22 210.179 116.091 209.719 116.091C209.043 116.091 208.51 116.385 208.121 116.973C207.734 117.561 207.54 118.386 207.537 119.449H207.605C207.764 119.207 207.953 119.001 208.172 118.831C208.393 118.658 208.638 118.524 208.905 118.43C209.172 118.337 209.455 118.29 209.753 118.29C210.253 118.29 210.71 118.415 211.125 118.665C211.54 118.912 211.872 119.254 212.122 119.692C212.372 120.126 212.497 120.625 212.497 121.188C212.497 121.727 212.376 122.222 212.135 122.67C211.893 123.116 211.554 123.472 211.116 123.736C210.682 123.997 210.17 124.125 209.582 124.119ZM209.582 123.182C209.94 123.182 210.261 123.092 210.545 122.913C210.832 122.734 211.058 122.494 211.223 122.193C211.391 121.892 211.474 121.557 211.474 121.188C211.474 120.827 211.393 120.499 211.232 120.203C211.072 119.905 210.852 119.668 210.571 119.491C210.293 119.315 209.974 119.227 209.616 119.227C209.347 119.227 209.095 119.281 208.862 119.389C208.629 119.494 208.425 119.639 208.249 119.824C208.075 120.009 207.939 120.22 207.839 120.459C207.74 120.695 207.69 120.943 207.69 121.205C207.69 121.551 207.771 121.875 207.933 122.176C208.098 122.477 208.322 122.72 208.607 122.905C208.893 123.089 209.219 123.182 209.582 123.182ZM215.28 122.807L215.212 123.267C215.163 123.591 215.089 123.938 214.99 124.307C214.893 124.676 214.793 125.024 214.688 125.351C214.582 125.678 214.496 125.938 214.428 126.131H213.661C213.697 125.949 213.746 125.709 213.805 125.411C213.865 125.112 213.925 124.778 213.984 124.409C214.047 124.043 214.098 123.668 214.138 123.284L214.189 122.807H215.28ZM217.223 124L221.126 116.278V116.21H216.626V115.273H222.217V116.261L218.331 124H217.223ZM228.255 122.364V121.903C228.255 121.585 228.32 121.294 228.451 121.03C228.584 120.763 228.777 120.55 229.03 120.391C229.286 120.229 229.596 120.148 229.959 120.148C230.328 120.148 230.638 120.229 230.888 120.391C231.138 120.55 231.327 120.763 231.455 121.03C231.583 121.294 231.647 121.585 231.647 121.903V122.364C231.647 122.682 231.581 122.974 231.451 123.241C231.323 123.506 231.132 123.719 230.88 123.881C230.63 124.04 230.323 124.119 229.959 124.119C229.59 124.119 229.279 124.04 229.026 123.881C228.773 123.719 228.581 123.506 228.451 123.241C228.32 122.974 228.255 122.682 228.255 122.364ZM229.124 121.903V122.364C229.124 122.628 229.186 122.865 229.311 123.075C229.436 123.283 229.652 123.386 229.959 123.386C230.257 123.386 230.468 123.283 230.59 123.075C230.715 122.865 230.777 122.628 230.777 122.364V121.903C230.777 121.639 230.718 121.403 230.598 121.196C230.479 120.986 230.266 120.881 229.959 120.881C229.661 120.881 229.446 120.986 229.316 121.196C229.188 121.403 229.124 121.639 229.124 121.903ZM223.908 117.369V116.909C223.908 116.591 223.973 116.3 224.104 116.036C224.238 115.768 224.431 115.555 224.684 115.396C224.939 115.234 225.249 115.153 225.613 115.153C225.982 115.153 226.292 115.234 226.542 115.396C226.792 115.555 226.98 115.768 227.108 116.036C227.236 116.3 227.3 116.591 227.3 116.909V117.369C227.3 117.687 227.235 117.98 227.104 118.247C226.976 118.511 226.786 118.724 226.533 118.886C226.283 119.045 225.976 119.125 225.613 119.125C225.243 119.125 224.932 119.045 224.679 118.886C224.426 118.724 224.235 118.511 224.104 118.247C223.973 117.98 223.908 117.687 223.908 117.369ZM224.777 116.909V117.369C224.777 117.634 224.84 117.871 224.965 118.081C225.09 118.288 225.306 118.392 225.613 118.392C225.911 118.392 226.121 118.288 226.243 118.081C226.368 117.871 226.431 117.634 226.431 117.369V116.909C226.431 116.645 226.371 116.409 226.252 116.202C226.132 115.991 225.919 115.886 225.613 115.886C225.314 115.886 225.1 115.991 224.969 116.202C224.841 116.409 224.777 116.645 224.777 116.909ZM224.232 124L230.232 115.273H231.203L225.203 124H224.232ZM237.306 119.636C237.306 118.562 237.445 117.575 237.723 116.675C238.005 115.771 238.405 114.94 238.925 114.182H239.811C239.607 114.463 239.415 114.81 239.236 115.222C239.06 115.631 238.905 116.081 238.772 116.572C238.638 117.061 238.533 117.567 238.456 118.089C238.382 118.612 238.346 119.128 238.346 119.636C238.346 120.312 238.411 120.999 238.542 121.695C238.672 122.391 238.848 123.037 239.07 123.634C239.292 124.23 239.539 124.716 239.811 125.091H238.925C238.405 124.332 238.005 123.503 237.723 122.602C237.445 121.699 237.306 120.71 237.306 119.636ZM244.347 115.273V124H243.29V116.381H243.239L241.108 117.795V116.722L243.29 115.273H244.347ZM249.925 115.273V124H248.868V116.381H248.817L246.686 117.795V116.722L248.868 115.273H249.925ZM258.707 124.119C258.349 124.114 257.991 124.045 257.634 123.915C257.276 123.784 256.949 123.564 256.653 123.254C256.358 122.942 256.121 122.52 255.942 121.989C255.763 121.455 255.673 120.784 255.673 119.977C255.673 119.205 255.746 118.52 255.891 117.923C256.036 117.324 256.246 116.82 256.521 116.411C256.797 115.999 257.129 115.686 257.518 115.473C257.911 115.26 258.352 115.153 258.844 115.153C259.332 115.153 259.767 115.251 260.148 115.447C260.531 115.641 260.844 115.911 261.085 116.257C261.327 116.604 261.483 117.003 261.554 117.455H260.514C260.418 117.062 260.23 116.737 259.952 116.479C259.673 116.22 259.304 116.091 258.844 116.091C258.168 116.091 257.635 116.385 257.246 116.973C256.859 117.561 256.665 118.386 256.662 119.449H256.73C256.889 119.207 257.078 119.001 257.297 118.831C257.518 118.658 257.763 118.524 258.03 118.43C258.297 118.337 258.58 118.29 258.878 118.29C259.378 118.29 259.835 118.415 260.25 118.665C260.665 118.912 260.997 119.254 261.247 119.692C261.497 120.126 261.622 120.625 261.622 121.188C261.622 121.727 261.501 122.222 261.26 122.67C261.018 123.116 260.679 123.472 260.241 123.736C259.807 123.997 259.295 124.125 258.707 124.119ZM258.707 123.182C259.065 123.182 259.386 123.092 259.67 122.913C259.957 122.734 260.183 122.494 260.348 122.193C260.516 121.892 260.599 121.557 260.599 121.188C260.599 120.827 260.518 120.499 260.357 120.203C260.197 119.905 259.977 119.668 259.696 119.491C259.418 119.315 259.099 119.227 258.741 119.227C258.472 119.227 258.22 119.281 257.987 119.389C257.754 119.494 257.55 119.639 257.374 119.824C257.2 120.009 257.064 120.22 256.964 120.459C256.865 120.695 256.815 120.943 256.815 121.205C256.815 121.551 256.896 121.875 257.058 122.176C257.223 122.477 257.447 122.72 257.732 122.905C258.018 123.089 258.344 123.182 258.707 123.182ZM263.093 122.21V121.341L266.929 115.273H267.559V116.619H267.133L264.235 121.205V121.273H269.4V122.21H263.093ZM267.201 124V121.946V121.541V115.273H268.207V124H267.201ZM270.997 124V123.233L273.878 120.08C274.216 119.71 274.494 119.389 274.713 119.116C274.932 118.841 275.094 118.582 275.199 118.341C275.307 118.097 275.361 117.841 275.361 117.574C275.361 117.267 275.287 117.001 275.139 116.777C274.994 116.553 274.795 116.379 274.543 116.257C274.29 116.135 274.006 116.074 273.69 116.074C273.355 116.074 273.062 116.143 272.812 116.283C272.565 116.419 272.374 116.611 272.237 116.858C272.104 117.105 272.037 117.395 272.037 117.727H271.031C271.031 117.216 271.149 116.767 271.385 116.381C271.621 115.994 271.942 115.693 272.348 115.477C272.757 115.261 273.216 115.153 273.724 115.153C274.236 115.153 274.689 115.261 275.084 115.477C275.479 115.693 275.788 115.984 276.013 116.351C276.237 116.717 276.349 117.125 276.349 117.574C276.349 117.895 276.291 118.209 276.175 118.516C276.061 118.82 275.862 119.159 275.578 119.534C275.297 119.906 274.906 120.361 274.406 120.898L272.446 122.994V123.062H276.503V124H270.997ZM280.428 119.636C280.428 120.71 280.287 121.699 280.006 122.602C279.727 123.503 279.328 124.332 278.808 125.091H277.922C278.126 124.81 278.317 124.463 278.493 124.051C278.672 123.642 278.828 123.193 278.962 122.705C279.095 122.213 279.199 121.706 279.273 121.183C279.349 120.658 279.388 120.142 279.388 119.636C279.388 118.96 279.322 118.274 279.192 117.578C279.061 116.882 278.885 116.236 278.663 115.639C278.442 115.043 278.195 114.557 277.922 114.182H278.808C279.328 114.94 279.727 115.771 280.006 116.675C280.287 117.575 280.428 118.562 280.428 119.636Z" fill="#31E981" fill-opacity="0.67"/>
<defs>
<linearGradient id="paint0_linear_434_534" x1="142.451" y1="1.46756" x2="142.451" y2="104" gradientUnits="userSpaceOnUse">
<stop stop-color="#31E981"/>
<stop offset="1" stop-color="#31E981" stop-opacity="0"/>
</linearGradient>
</defs>
</svg>
